<svg xmlns="http://www.w3.org/2000/svg" preserveAspectRatio="xMidYMid meet"  viewBox="0 0 375.1 197.1"><path fill="#E41223" d="M295.4 4.3l-27.1 110.2L241.1 4.3h-79.6V45C151.9 9.4 118.2.4 86.9 0 48.8-.5 8.8 16 7.4 66.4h52.7c0-15.2 11.7-23.9 24.8-23.7 16.1-.1 23.6 6.8 24 17.5-.6 9.3-6.1 15.8-23.8 15.8H67.4v36.5h16.1c9.1 0 21.9 5 22.4 18 .6 15.5-10.2 22.3-23.5 22.5-23.7-.9-27.6-19.1-27.6-34.7H0c.2 10.5-2.4 79.3 83.4 78.8 41.1.4 69.7-16.9 78.2-40.7v36.5h54v-119l29.2 118.9H292L321.3 74v118.9h53.8V4.3h-79.7zm-133.8 110c-6.7-13.9-16.2-20-21.5-21.9 11.2-5 17-11.7 21.5-25.1v47z"/></svg>