<svg xmlns="http://www.w3.org/2000/svg" preserveAspectRatio="xMidYMid meet"  viewBox="0 0 374.9 147.2"><path fill="#E30D18" d="M26.3 72.1L51.5 0h20.6v72.1H26.3zm48.7 0h45.8L95.6 0H75v72.1zm46.8 3H75v42.6h25l10.3 29.4h36.8l-25.3-72zm-49.7 0H25.2L0 147.2h36.8l10.3-29.4h25V75.1zm127.9-3V0h-42.6v72.1H200zm2.9 3v72.1h13.2c24.4 0 44.1-19.8 44.1-44.1 0-10.6-3.7-20.3-10-27.9h-47.3v-.1zm0-3h44.7c-4.3-4.4-9.5-7.8-15.3-10.1 10.1-5.7 16.9-16.5 16.9-28.8 0-18.3-14.8-33.1-33.1-33.1h-13.2v72zm-2.9 3h-42.6v72.1H200V75.1zm114.7-3V0h-42.6v72.1h42.6zm2.9 3v72.1h13.2c24.4 0 44.1-19.8 44.1-44.1 0-10.6-3.7-20.3-10-27.9h-47.3v-.1zm0-3h44.7c-4.3-4.4-9.5-7.8-15.3-10.1 10.1-5.7 16.9-16.5 16.9-28.8 0-18.3-14.8-33.1-33.1-33.1h-13.2v72zm-2.9 3h-42.6v72.1h42.6V75.1z"/></svg>