<svg xmlns="http://www.w3.org/2000/svg" preserveAspectRatio="xMidYMid meet"  viewBox="0 0 375 165.2"><g fill="#010202"><path d="M26.8 83c0 6.1-2.5 14.4-10 14.4-3.7 0-5.9-1.9-5.9-5.7 0-7.3 10.5-8.7 15.9-8.7m10.7 21.1V70c0-11.1-7.3-14.9-17.4-14.9-9.9 0-18.2 4.2-18.2 15.2h10.9c0-4.7 2.5-7.3 7.3-7.3 5.5 0 6.7 4 6.7 8.7v4.7C15.9 76.7 0 78.2 0 92.6c0 8.1 6.4 12.6 14.1 12.6 5.2 0 10.1-1.7 12.5-6.6h.2v5.5h10.7m33.1-31.5h11.9c0-11.8-6.5-17.5-18.2-17.5-14.4 0-21.9 9-21.9 22.9 0 16.7 8.6 27.2 25.7 27.2 4.7 0 9.5-.8 14-2.2v-6.8c-2.6.9-5.3 1.2-8 1.2-12.7 0-19.7-9.3-19.7-21.3 0-5.7 2.1-13.1 9.2-13.1 5.6 0 7 4.7 7 9.6m42.9 0h11.9c0-11.8-6.6-17.5-18.2-17.5-14.4 0-21.9 9-21.9 22.9 0 16.7 8.5 27.2 25.7 27.2 4.7 0 9.5-.8 14-2.2v-6.8c-2.6.9-5.3 1.2-8 1.2-12.7 0-19.7-9.3-19.7-21.3 0-5.7 2.1-13.1 9.2-13.1 5.6 0 7 4.7 7 9.6m43.8-2.1h-17.5c.5-4.8 4.2-8.3 9-8.3 5.1 0 8.5 3.2 8.5 8.3m10.5 6.8v-2.7c0-11.7-6-19.4-18.2-19.4-14.3 0-20.5 9-20.5 22.5 0 15.8 7.1 27.6 24.1 27.6 4.5 0 9.1-.5 13.4-1.9v-7.8c-2.8 1-6.1 1.8-9.1 1.8-10.9 0-18-10-18-20.1h28.3m33.1 26.8h11.2V70.9c0-8.2-3.9-15.8-13-15.8-6.8 0-11.7 3.9-14.2 10.1h-.2v-9h-11.2v47.9h11.2V83.4c0-6.5 3.2-17.8 11.2-17.8 1.1 0 2.4.1 3.2.9 1.9 1.8 1.7 7.9 1.7 10.3l.1 27.3M235.4 64h14.2v-7.8h-14.2V40.3l-11.1 4.5v11.4h-9.4V64h9.4v28.1c0 10 4.9 13.2 14.7 13.2 3 0 6.1-.3 9.1-.8v-7.9c-1.7.4-3.4.8-5.1.8-7 0-7.6-5.1-7.6-10.8V64m46.5 40.1h11.2V56.2h-11.2v20.7c0 6.5-3.2 17.8-11.3 17.8-1.1 0-2.4-.1-3.2-.9-1.9-1.8-1.7-8-1.7-10.3V56.1h-11.2v33.2c0 8.3 3.8 15.8 13 15.8 6.8 0 11.7-4 14.2-10.1h.2v9.1m29.4-21c0-11.3 4.2-16.3 15.7-16.3V55.1c-8 0-11.8 3.3-15.5 9.9h-.2v-8.9h-11.2V104h11.2V83.1m46.1-12.6h-17.5c.5-4.8 4.2-8.3 9-8.3 5.2 0 8.5 3.2 8.5 8.3m10.6 6.8v-2.7c0-11.7-6-19.4-18.2-19.4-14.3 0-20.5 9-20.5 22.5 0 15.8 7.1 27.6 24.1 27.6 4.5 0 9.1-.5 13.4-1.9v-7.8c-2.8 1-6.1 1.8-9.1 1.8-10.9 0-18-10-18-20.1H368M214.8 0v7.9s22.3 8.6 25.5 9.9c-3.2 1.2-25.5 9.8-25.5 9.8v7.9l34.8-14.1v-7.2L214.8 0M15.3 157.2v-12.1H4.7v12.1H1.8v-25.7h2.9v11.1h10.6v-11.1h2.9v25.7h-2.9zm6.9-22.3v-3.4h3.4v3.4h-3.4zm.4 22.3v-17.7h2.5v17.7h-2.5zm11.1 7.8c-1.7 0-3.2-.3-4.8-.6v-2.6c1.4.7 2.9 1 4.4 1 4.1 0 5.4-2.1 5.4-5.9v-3.1h-.1c-.7 2.1-2.5 3.4-4.7 3.4-4.9 0-6-4.8-6-8.8 0-3.8 1.2-9.4 6.1-9.4 2.1 0 4.1 1.2 4.6 3.3h.1v-2.9h2.5v17.8c0 5.1-2.4 7.8-7.5 7.8zm.8-23.8c-3.2 0-3.7 5-3.7 7.3s.4 6.6 3.6 6.6 4.2-4.5 4.2-7.1c0-2.4-1-6.8-4.1-6.8zm20.6 16v-9.8c0-2 .3-5.8-2.6-5.8-3.5 0-5 5.5-5 8.3v7.3H45v-25.7h2.5v12.1h.1c.9-2.7 2.5-4.5 5.5-4.5 3.1 0 4.5 2.7 4.5 5.5v12.7h-2.5v-.1zm21 .4c-2.3 0-4-1.2-4.7-3.3h-.1v10.9h-2.5v-25.7h2.5v3h.1c.6-2.1 2.5-3.4 4.6-3.4 5.1 0 6.1 5 6.1 9.1 0 3.9-1.2 9.4-6 9.4zm-.6-16.4c-3.2 0-4.2 4.6-4.2 7.1s.7 7.2 4.1 7.2c3.5 0 3.8-5.3 3.8-7.8 0-2.4-.4-6.5-3.7-6.5zm11.6 5.5v1c0 3.9 1.9 7.8 6.3 7.8 1.2 0 2.3-.2 3.5-.5v2.1c-1.3.4-2.7.5-4.1.5-6.1 0-8.6-4.1-8.6-9.9 0-4.6 1.7-8.7 6.9-8.7 4.1 0 6.2 2.8 6.2 6.7v.9H87.1v.1zm3.9-5.5c-2.1 0-3.4 1.4-3.7 3.4h7.1c0-2-1.5-3.4-3.4-3.4zm11.9 8.7v7.3h-2.5v-17.7h2.5v3.4h.1c1.1-2.6 3.1-3.8 5.9-3.8v2.7c-4.6 0-6 4.2-6 8.1zm17.1-16.4c-4 0-3.7 2.9-3.7 6h5.1v2.1h-5.1v15.6h-2.5v-15.6h-3v-2.1h3V137c0-3.7 2.1-5.6 5.8-5.6 1 0 2 .1 3 .3v2.3c-.9-.3-1.7-.5-2.6-.5zm9.4 24.1c-5.5 0-7.2-4.5-7.2-9.2 0-4.8 1.8-9.3 7.2-9.3 5.5 0 7.3 4.5 7.3 9.3 0 4.8-1.8 9.2-7.3 9.2zm0-16.4c-3.7 0-4.3 4.3-4.3 7.1s.6 7.2 4.3 7.2 4.4-4.3 4.4-7.2c0-2.8-.7-7.1-4.4-7.1zm12.9 8.7v7.3h-2.5v-17.7h2.5v3.4h.1c1.1-2.6 3.1-3.8 5.9-3.8v2.7c-4.5 0-6 4.2-6 8.1zm27.4 7.3v-9.8c0-2 .3-5.8-2.6-5.8-3.3 0-4.4 5.8-4.4 8.3v7.3h-2.5v-9.8c0-2 .3-5.8-2.6-5.8-3.2 0-4.4 5.8-4.4 8.3v7.3h-2.7v-17.7h2.5v4.1h.1c.7-2.5 2-4.5 5-4.5 2.6 0 4.3 1.4 4.5 4.1h.1c.7-2.3 2.5-4.1 5-4.1 3.1 0 4.5 2.7 4.5 5.5v12.7h-2.5v-.1zm15.7 0v-2.3h-.1c-1 1.9-3.5 2.8-5.4 2.8-3.1 0-4.8-1.9-4.8-5 0-4.1 5.2-5.5 8.5-5.5.6 0 1.2 0 1.8-.1v-.4c0-2.6.2-5.5-3.4-5.5-2.1 0-3.4.7-3.6 2.8h-2.8c.1-3.6 3.2-5 6.4-5 4 0 6 1.7 6 5.7v12.4h-2.6v.1zm-1.5-8c-2.3 0-5.8.9-5.8 3.8 0 1.5 1 2.6 2.5 2.6 1.8 0 3.4-1.2 4.1-2.8.6-1.3.7-2.1.7-3.6h-1.5zm18.2 8v-9.8c0-2 .3-5.8-2.6-5.8-3.5 0-5 5.5-5 8.3v7.3H192v-17.7h2.5v4.1h.1c.9-2.7 2.5-4.5 5.5-4.5 3.1 0 4.5 2.7 4.5 5.5v12.7h-2.5v-.1zm15.9-12.3c0-2.1-.9-3.7-3.2-3.7-3.2 0-4.2 3.5-4.2 6.2 0 4.6 2 8.1 7 8.1 1 0 1.9-.1 2.9-.4v2c-1.2.4-2.4.5-3.7.5-6.1 0-9.1-3.8-9.1-9.7 0-4.8 1.8-8.9 7.2-8.9 3.8 0 6.1 2 6.1 5.8h-3v.1zm7 1.8v1c0 3.9 1.9 7.8 6.3 7.8 1.2 0 2.3-.2 3.5-.5v2.1c-1.3.4-2.7.5-4.1.5-6.1 0-8.6-4.1-8.6-9.9 0-4.6 1.7-8.7 6.9-8.7 4.1 0 6.2 2.8 6.2 6.7v.9H225v.1zm3.9-5.5c-2.1 0-3.4 1.4-3.7 3.4h7.1c0-2-1.5-3.4-3.4-3.4zm8.3 16v-3.7h3.7v3.7h-3.7zm24.1-.7c-1.7.6-3.6.7-5.4.7h-4.8v-25.7h5.8c8.3 0 10.5 5.4 10.5 12.8 0 4.9-.9 10.4-6.1 12.2zm-1.4-22c-1.3-.5-2.8-.6-4.2-.6h-1.6v20.9h2c1.5 0 3-.1 4.4-.7 3.6-1.6 3.9-6.4 3.9-9.8-.1-3.6-.5-8.4-4.5-9.8zm12.7 12.2v1c0 3.9 1.9 7.8 6.3 7.8 1.2 0 2.3-.2 3.5-.5v2.1c-1.3.4-2.7.5-4.1.5-6.1 0-8.6-4.1-8.6-9.9 0-4.6 1.7-8.7 6.9-8.7 4.1 0 6.2 2.8 6.2 6.7v.9h-10.2v.1zm3.9-5.5c-2.1 0-3.4 1.4-3.7 3.4h7.1c0-2-1.4-3.4-3.4-3.4zm9.6 16v-25.7h2.5v25.7h-2.5zm6.7-22.3v-3.4h3.3v3.4h-3.3zm.4 22.3v-17.7h2.5v17.7h-2.5zm13.8 0h-2.6l-6.7-17.7h2.7l5.2 14h.1l4.5-14h2.7l-5.9 17.7zm9.4-10.5v1c0 3.9 1.9 7.8 6.3 7.8 1.2 0 2.3-.2 3.5-.5v2.1c-1.3.4-2.7.5-4.1.5-6.1 0-8.6-4.1-8.6-9.9 0-4.6 1.7-8.7 6.9-8.7 4.1 0 6.2 2.8 6.2 6.7v.9h-10.2v.1zm4-5.5c-2.1 0-3.4 1.4-3.7 3.4h7.1c-.1-2-1.5-3.4-3.4-3.4zm12 8.7v7.3h-2.5v-17.7h2.5v3.4h.1c1.1-2.6 3.1-3.8 5.9-3.8v2.7c-4.5 0-6 4.2-6 8.1zm9.9-3.2v1c0 3.9 1.9 7.8 6.3 7.8 1.2 0 2.3-.2 3.5-.5v2.1c-1.3.4-2.7.5-4.1.5-6.1 0-8.6-4.1-8.6-9.9 0-4.6 1.7-8.7 6.9-8.7 4.1 0 6.2 2.8 6.2 6.7v.9h-10.2v.1zm3.9-5.5c-2.1 0-3.4 1.4-3.7 3.4h7.1c0-2-1.4-3.4-3.4-3.4zm19.3 16v-3h-.1c-.6 2.1-2.5 3.4-4.6 3.4-5.1 0-6.1-5-6.1-9.1 0-3.8 1.2-9.4 6-9.4 2.3 0 3.9 1.2 4.7 3.3h.1v-10.9h2.5v25.7h-2.5zm-4.2-16c-3.5 0-3.8 5.3-3.8 7.8s.4 6.5 3.7 6.5c3.2 0 4.2-4.6 4.2-7.1 0-2.4-.7-7.2-4.1-7.2zm10 16v-3.7h3.7v3.7h-3.7z"/></g></svg>